<svg width="40" height="40" viewBox="0 0 40 40" fill="none" xmlns="http://www.w3.org/2000/svg">
<path d="M30 11.9335C29.9 11.9168 29.7833 11.9168 29.6833 11.9335C27.3833 11.8502 25.55 9.96683 25.55 7.6335C25.55 5.25017 27.4667 3.3335 29.85 3.3335C32.2333 3.3335 34.15 5.26683 34.15 7.6335C34.1333 9.96683 32.3 11.8502 30 11.9335Z" stroke="#FAFAFA" stroke-width="2.5" stroke-linecap="round" stroke-linejoin="round"/>
<path d="M28.2833 24.0666C30.5667 24.4499 33.0833 24.0499 34.85 22.8666C37.2 21.2999 37.2 18.7333 34.85 17.1666C33.0667 15.9833 30.5167 15.5833 28.2333 15.9833" stroke="#FAFAFA" stroke-width="2.5" stroke-linecap="round" stroke-linejoin="round"/>
<path d="M9.95 11.9335C10.05 11.9168 10.1667 11.9168 10.2667 11.9335C12.5667 11.8502 14.4 9.96683 14.4 7.6335C14.4 5.25017 12.4833 3.3335 10.1 3.3335C7.71667 3.3335 5.8 5.26683 5.8 7.6335C5.81666 9.96683 7.65 11.8502 9.95 11.9335Z" stroke="#FAFAFA" stroke-width="2.5" stroke-linecap="round" stroke-linejoin="round"/>
<path d="M11.6667 24.0666C9.38333 24.4499 6.86667 24.0499 5.1 22.8666C2.75 21.2999 2.75 18.7333 5.1 17.1666C6.88333 15.9833 9.43333 15.5833 11.7167 15.9833" stroke="#FAFAFA" stroke-width="2.5" stroke-linecap="round" stroke-linejoin="round"/>
<path d="M20 24.3832C19.9 24.3665 19.7833 24.3665 19.6833 24.3832C17.3833 24.2999 15.55 22.4165 15.55 20.0832C15.55 17.6999 17.4667 15.7832 19.85 15.7832C22.2333 15.7832 24.15 17.7165 24.15 20.0832C24.1333 22.4165 22.3 24.3165 20 24.3832Z" stroke="#FAFAFA" stroke-width="2.5" stroke-linecap="round" stroke-linejoin="round"/>
<path d="M15.15 29.6331C12.8 31.1998 12.8 33.7664 15.15 35.3331C17.8167 37.1164 22.1833 37.1164 24.85 35.3331C27.2 33.7664 27.2 31.1998 24.85 29.6331C22.2 27.8664 17.8167 27.8664 15.15 29.6331Z" stroke="#FAFAFA" stroke-width="2.5" stroke-linecap="round" stroke-linejoin="round"/>
</svg>
