<svg width="50" height="50" viewBox="0 0 50 50" fill="none" xmlns="http://www.w3.org/2000/svg">
<path d="M25.3333 22.6457C25.125 22.6248 24.875 22.6248 24.6458 22.6457C19.6875 22.479 15.75 18.4165 15.75 13.4165C15.75 8.31234 19.875 4.1665 25 4.1665C30.1042 4.1665 34.25 8.31234 34.25 13.4165C34.2292 18.4165 30.2917 22.479 25.3333 22.6457Z" stroke="white" stroke-width="3.5" stroke-linecap="round" stroke-linejoin="round"/>
<path d="M14.9167 30.3335C9.875 33.7085 9.875 39.2085 14.9167 42.5627C20.6458 46.396 30.0417 46.396 35.7708 42.5627C40.8125 39.1877 40.8125 33.6877 35.7708 30.3335C30.0625 26.521 20.6667 26.521 14.9167 30.3335Z" stroke="white" stroke-width="3.5" stroke-linecap="round" stroke-linejoin="round"/>
</svg>
