<svg width="40" height="40" viewBox="0 0 40 40" fill="none" xmlns="http://www.w3.org/2000/svg">
<path d="M36.1334 28.2666L30.9167 16.0832C29.15 11.9499 25.9 11.7832 23.7167 15.7166L20.5667 21.3999C18.9667 24.2832 15.9834 24.5332 13.9167 21.9499L13.55 21.4832C11.4 18.7832 8.36671 19.1166 6.81671 22.1999L3.95004 27.9499C1.93337 31.9499 4.85004 36.6666 9.31671 36.6666H30.5834C34.9167 36.6666 37.8334 32.2499 36.1334 28.2666Z" stroke="#FAFAFA" stroke-width="3" stroke-linecap="round" stroke-linejoin="round"/>
<path d="M11.6167 13.3335C14.3781 13.3335 16.6167 11.0949 16.6167 8.3335C16.6167 5.57207 14.3781 3.3335 11.6167 3.3335C8.85527 3.3335 6.6167 5.57207 6.6167 8.3335C6.6167 11.0949 8.85527 13.3335 11.6167 13.3335Z" stroke="#FAFAFA" stroke-width="3" stroke-linecap="round" stroke-linejoin="round"/>
</svg>
