<svg width="40" height="40" viewBox="0 0 40 40" fill="none" xmlns="http://www.w3.org/2000/svg">
<path d="M31.7667 31.1166L28.2 24L24.6333 31.1166" stroke="#FAFAFA" stroke-width="2.5" stroke-linecap="round" stroke-linejoin="round"/>
<path d="M25.2833 29.8501H31.15" stroke="#FAFAFA" stroke-width="2.5" stroke-linecap="round" stroke-linejoin="round"/>
<path d="M28.2 36.6667C23.5333 36.6667 19.7333 32.8833 19.7333 28.2C19.7333 23.5333 23.5167 19.7334 28.2 19.7334C32.8667 19.7334 36.6667 23.5167 36.6667 28.2C36.6667 32.8833 32.8833 36.6667 28.2 36.6667Z" stroke="#FAFAFA" stroke-width="2.5" stroke-linecap="round" stroke-linejoin="round"/>
<path d="M8.36668 3.3335H14.9C18.35 3.3335 20.0167 5.0002 19.9333 8.36686V14.9002C20.0167 18.3502 18.35 20.0169 14.9 19.9335H8.36668C5.00001 20.0002 3.33334 18.3335 3.33334 14.8835V8.35018C3.33334 5.00018 5.00001 3.3335 8.36668 3.3335Z" stroke="#FAFAFA" stroke-width="2.5" stroke-linecap="round" stroke-linejoin="round"/>
<path d="M15.0167 9.75H8.24999" stroke="#FAFAFA" stroke-width="2.5" stroke-linecap="round" stroke-linejoin="round"/>
<path d="M11.6167 8.6167V9.75002" stroke="#FAFAFA" stroke-width="2.5" stroke-linecap="round" stroke-linejoin="round"/>
<path d="M13.3167 9.7334C13.3167 12.6501 11.0333 15.0167 8.23334 15.0167" stroke="#FAFAFA" stroke-width="2.5" stroke-linecap="round" stroke-linejoin="round"/>
<path d="M15.0167 15.0168C13.8 15.0168 12.7 14.3668 11.9333 13.3335" stroke="#FAFAFA" stroke-width="2.5" stroke-linecap="round" stroke-linejoin="round"/>
<path d="M3.33334 25C3.33334 31.45 8.55 36.6667 15 36.6667L13.25 33.75" stroke="#FAFAFA" stroke-width="2.5" stroke-linecap="round" stroke-linejoin="round"/>
<path d="M36.6667 15.0002C36.6667 8.55016 31.45 3.3335 25 3.3335L26.75 6.25016" stroke="#FAFAFA" stroke-width="2.5" stroke-linecap="round" stroke-linejoin="round"/>
</svg>
