<svg width="45" height="45" viewBox="0 0 45 45" fill="none" xmlns="http://www.w3.org/2000/svg">
<path d="M35.625 16.875C35.625 19.5938 34.8187 22.0875 33.4312 24.1688C31.4062 27.1688 28.2 29.2875 24.4688 29.8313C23.8313 29.9438 23.175 30 22.5 30C21.825 30 21.1687 29.9438 20.5312 29.8313C16.8 29.2875 13.5938 27.1688 11.5688 24.1688C10.1813 22.0875 9.375 19.5938 9.375 16.875C9.375 9.61875 15.2438 3.75 22.5 3.75C29.7562 3.75 35.625 9.61875 35.625 16.875Z" stroke="#FAFAFA" stroke-width="2.5" stroke-linecap="round" stroke-linejoin="round"/>
<path d="M39.8438 34.6313L36.75 35.3625C36.0563 35.5312 35.5125 36.0563 35.3625 36.75L34.7063 39.5063C34.35 41.0063 32.4375 41.4563 31.4438 40.275L22.5 30L13.5563 40.2937C12.5625 41.475 10.65 41.025 10.2938 39.525L9.6375 36.7687C9.46875 36.075 8.925 35.5313 8.25 35.3813L5.15625 34.65C3.73125 34.3125 3.225 32.5312 4.25625 31.5L11.5688 24.1875C13.5938 27.1875 16.8 29.3063 20.5313 29.85C21.1688 29.9625 21.825 30.0188 22.5 30.0188C23.175 30.0188 23.8313 29.9625 24.4688 29.85C28.2 29.3063 31.4063 27.1875 33.4313 24.1875L40.7438 31.5C41.775 32.5125 41.2688 34.2938 39.8438 34.6313Z" stroke="#FAFAFA" stroke-width="2.5" stroke-linecap="round" stroke-linejoin="round"/>
<path d="M23.5875 11.2125L24.6937 13.425C24.8437 13.725 25.2375 14.025 25.5937 14.0812L27.6 14.4187C28.875 14.625 29.175 15.5625 28.2562 16.4812L26.7 18.0375C26.4375 18.3 26.2875 18.8063 26.3812 19.1813L26.8312 21.1125C27.1875 22.6312 26.3812 23.2312 25.0312 22.425L23.1562 21.3187C22.8187 21.1125 22.2562 21.1125 21.9187 21.3187L20.0437 22.425C18.6937 23.2125 17.8875 22.6312 18.2437 21.1125L18.6937 19.1813C18.7687 18.825 18.6375 18.3 18.375 18.0375L16.8187 16.4812C15.9 15.5625 16.2 14.6437 17.475 14.4187L19.4812 14.0812C19.8187 14.025 20.2125 13.725 20.3625 13.425L21.4687 11.2125C22.0125 10.0125 22.9875 10.0125 23.5875 11.2125Z" stroke="#FAFAFA" stroke-width="2" stroke-linecap="round" stroke-linejoin="round"/>
</svg>
